<svg id="Group_22" data-name="Group 22" xmlns="http://www.w3.org/2000/svg" xmlns:xlink="http://www.w3.org/1999/xlink" width="320" height="60.314" viewBox="0 0 320 60.314">
  <defs>
    <clipPath id="clip-path">
      <rect id="Rectangle_24" data-name="Rectangle 24" width="320" height="60.314" fill="#2c1b4e"/>
    </clipPath>
  </defs>
  <g id="Group_10" data-name="Group 10" clip-path="url(#clip-path)">
    <path id="Path_838" data-name="Path 838" d="M39.719,44.133a2.943,2.943,0,0,1-2.942-2.942V21.331a15.446,15.446,0,0,0-30.893,0V41.19A2.942,2.942,0,1,1,0,41.19V21.331a21.331,21.331,0,1,1,42.662,0V41.19a2.943,2.943,0,0,1-2.942,2.942" transform="translate(0 0)" fill="#2c1b4e"/>
    <path id="Path_839" data-name="Path 839" d="M54.966,73.732A21.355,21.355,0,0,1,33.636,52.4V32.541a2.942,2.942,0,1,1,5.884,0V52.4a15.446,15.446,0,1,0,30.892,0V32.541a2.942,2.942,0,0,1,5.885,0V52.4a21.355,21.355,0,0,1-21.33,21.33" transform="translate(-15.247 -13.417)" fill="#2c1b4e"/>
    <path id="Path_840" data-name="Path 840" d="M146.078,20.781a1.84,1.84,0,0,1,1.849-1.849h.388a2.311,2.311,0,0,1,1.909,1.074l10.44,13.512V20.691a1.8,1.8,0,0,1,3.609,0V38.23a1.782,1.782,0,0,1-1.789,1.819h-.149a2.31,2.31,0,0,1-1.909-1.1l-10.738-13.9V38.29a1.8,1.8,0,0,1-3.609,0Z" transform="translate(-66.218 -8.568)" fill="#2c1b4e"/>
    <path id="Path_841" data-name="Path 841" d="M199.493,31.071V20.721a1.835,1.835,0,0,1,3.669,0v10.2c0,3.878,2,5.935,5.279,5.935,3.251,0,5.249-1.939,5.249-5.786V20.721a1.835,1.835,0,0,1,3.669,0V30.893c0,6.234-3.52,9.365-8.978,9.365-5.429,0-8.889-3.131-8.889-9.187" transform="translate(-90.431 -8.568)" fill="#2c1b4e"/>
    <path id="Path_842" data-name="Path 842" d="M252.307,20.805a1.84,1.84,0,0,1,1.849-1.849h.388a1.932,1.932,0,0,1,1.7.985l6.324,9.9,6.353-9.933a1.846,1.846,0,0,1,1.67-.955h.388a1.84,1.84,0,0,1,1.849,1.849V38.284a1.815,1.815,0,0,1-1.849,1.819,1.846,1.846,0,0,1-1.819-1.819V25.757l-5.1,7.666a1.713,1.713,0,0,1-3.072,0l-5.071-7.606v12.5A1.782,1.782,0,0,1,254.1,40.1a1.758,1.758,0,0,1-1.79-1.789Z" transform="translate(-114.371 -8.593)" fill="#2c1b4e"/>
    <path id="Path_843" data-name="Path 843" d="M308.2,37.421l7.755-17.3a2.328,2.328,0,0,1,2.208-1.491h.179a2.289,2.289,0,0,1,2.177,1.491l7.755,17.3a1.6,1.6,0,0,1,.209.775,1.719,1.719,0,0,1-1.73,1.76,1.89,1.89,0,0,1-1.79-1.283l-1.7-3.907H313.119l-1.76,4.026a1.764,1.764,0,0,1-1.7,1.163,1.681,1.681,0,0,1-1.7-1.7,1.875,1.875,0,0,1,.239-.835m13.661-5.906-3.669-8.441-3.669,8.441Z" transform="translate(-139.599 -8.445)" fill="#2c1b4e"/>
    <path id="Path_844" data-name="Path 844" d="M363.666,20.781a1.84,1.84,0,0,1,1.849-1.849h.388a2.311,2.311,0,0,1,1.909,1.074l10.44,13.512V20.691a1.8,1.8,0,0,1,3.609,0V38.23a1.782,1.782,0,0,1-1.789,1.819h-.149a2.31,2.31,0,0,1-1.909-1.1l-10.738-13.9V38.29a1.8,1.8,0,0,1-3.609,0Z" transform="translate(-164.851 -8.568)" fill="#2c1b4e"/>
    <path id="Path_845" data-name="Path 845" d="M415.989,29.377v-.06a10.918,10.918,0,0,1,21.834-.06v.06a10.918,10.918,0,0,1-21.834.06m17.986,0v-.06a7.154,7.154,0,0,0-7.1-7.427,7.055,7.055,0,0,0-7.039,7.368v.06a7.128,7.128,0,0,0,7.1,7.4,7.029,7.029,0,0,0,7.039-7.338" transform="translate(-188.569 -8.395)" fill="#2c1b4e"/>
    <path id="Path_846" data-name="Path 846" d="M478.176,38.737l-7.308-17.181a2.058,2.058,0,0,1-.209-.865,1.808,1.808,0,0,1,1.849-1.789,1.92,1.92,0,0,1,1.879,1.312l6.025,15.063,6.115-15.182a1.89,1.89,0,0,1,1.76-1.193,1.776,1.776,0,0,1,1.819,1.76,2.122,2.122,0,0,1-.179.775l-7.338,17.3a2.185,2.185,0,0,1-2.118,1.491h-.209a2.175,2.175,0,0,1-2.088-1.491" transform="translate(-213.351 -8.568)" fill="#2c1b4e"/>
    <path id="Path_847" data-name="Path 847" d="M524.619,20.721a1.835,1.835,0,0,1,3.669,0V38.26a1.835,1.835,0,0,1-3.669,0Z" transform="translate(-237.811 -8.568)" fill="#2c1b4e"/>
    <path id="Path_848" data-name="Path 848" d="M550.753,24.159V24.1a10.566,10.566,0,0,1,10.768-10.8,10.946,10.946,0,0,1,7.159,2.357,1.832,1.832,0,0,1,.716,1.461,1.835,1.835,0,0,1-2.923,1.432,7.569,7.569,0,0,0-4.981-1.879c-3.967,0-6.891,3.281-6.891,7.367v.06c0,4.086,2.894,7.4,6.891,7.4a7.481,7.481,0,0,0,5.219-2,1.67,1.67,0,0,1,1.1-.418,1.713,1.713,0,0,1,1.133,3.012,10.667,10.667,0,0,1-7.576,2.8,10.5,10.5,0,0,1-10.619-10.738m9.426-13.005a1.351,1.351,0,0,1,.238-.655l1.7-2.625a1.636,1.636,0,0,1,1.432-.865c.955,0,2.148.6,2.148,1.164a1.269,1.269,0,0,1-.507.895l-2,1.909a2.728,2.728,0,0,1-2.117.805c-.507,0-.895-.239-.895-.627" transform="translate(-249.658 -3.176)" fill="#2c1b4e"/>
    <path id="Path_849" data-name="Path 849" d="M146.191,77.851a.822.822,0,0,1,.834-.834h5.49a.754.754,0,0,1,0,1.507h-4.669v2.57h4.064a.754.754,0,1,1,0,1.507h-4.064v3.082a.828.828,0,0,1-1.655,0Z" transform="translate(-66.269 -34.912)" fill="#2c1b4e"/>
    <path id="Path_850" data-name="Path 850" d="M169.385,85.249l3.5-7.805a1.05,1.05,0,0,1,1-.672h.08a1.032,1.032,0,0,1,.982.672l3.5,7.805a.72.72,0,0,1,.094.35.775.775,0,0,1-.78.794.853.853,0,0,1-.807-.578l-.767-1.763h-4.575l-.794,1.817a.8.8,0,0,1-.768.525.758.758,0,0,1-.767-.767.846.846,0,0,1,.108-.377m6.163-2.665-1.655-3.808-1.655,3.808Z" transform="translate(-76.734 -34.8)" fill="#2c1b4e"/>
    <path id="Path_851" data-name="Path 851" d="M199.33,77.851a.822.822,0,0,1,.834-.834h3.391a3.4,3.4,0,0,1,2.463.834,2.109,2.109,0,0,1,.633,1.561v.027a2.243,2.243,0,0,1-1.346,2.1,2.31,2.31,0,0,1,1.871,2.288v.027c0,1.682-1.386,2.584-3.486,2.584h-3.526a.822.822,0,0,1-.834-.834Zm3.889,3.135c1.063,0,1.776-.417,1.776-1.278v-.027c0-.74-.592-1.2-1.655-1.2h-2.381v2.5Zm.484,3.983c1.131,0,1.817-.444,1.817-1.292v-.027c0-.794-.633-1.265-1.937-1.265h-2.624V84.97Z" transform="translate(-90.357 -34.912)" fill="#2c1b4e"/>
    <path id="Path_852" data-name="Path 852" d="M226.946,77.851a.821.821,0,0,1,.834-.834h3.364a3.793,3.793,0,0,1,2.718.942,2.845,2.845,0,0,1,.78,2.032v.027A2.787,2.787,0,0,1,232.5,82.83l1.8,2.274a.96.96,0,0,1,.269.633.781.781,0,0,1-.794.767.946.946,0,0,1-.807-.431l-2.287-2.92H228.6v2.53a.827.827,0,0,1-1.655,0Zm4.077,3.835c1.184,0,1.938-.619,1.938-1.574v-.027c0-1.009-.727-1.561-1.952-1.561H228.6v3.163Z" transform="translate(-102.875 -34.912)" fill="#2c1b4e"/>
    <path id="Path_853" data-name="Path 853" d="M254.759,77.715a.828.828,0,0,1,1.655,0v7.913a.828.828,0,0,1-1.655,0Z" transform="translate(-115.483 -34.856)" fill="#2c1b4e"/>
    <path id="Path_854" data-name="Path 854" d="M272.234,77.715a.828.828,0,0,1,1.655,0V81.7l4.468-4.494a.87.87,0,0,1,.686-.309.758.758,0,0,1,.767.767.806.806,0,0,1-.3.619l-2.934,2.826,3.176,3.943a.9.9,0,0,1,.229.592.807.807,0,0,1-.834.807.837.837,0,0,1-.7-.39L275.423,82.2l-1.534,1.48v1.952a.828.828,0,0,1-1.655,0Z" transform="translate(-123.404 -34.856)" fill="#2c1b4e"/>
    <path id="Path_855" data-name="Path 855" d="M298.456,85.249l3.5-7.805a1.05,1.05,0,0,1,1-.672h.08a1.032,1.032,0,0,1,.982.672l3.5,7.805a.719.719,0,0,1,.094.35.775.775,0,0,1-.78.794.853.853,0,0,1-.807-.578l-.767-1.763h-4.575l-.794,1.817a.8.8,0,0,1-.768.525.758.758,0,0,1-.767-.767.847.847,0,0,1,.108-.377m6.163-2.665-1.655-3.808-1.655,3.808Z" transform="translate(-135.242 -34.8)" fill="#2c1b4e"/>
    <path id="Path_856" data-name="Path 856" d="M352.688,77.741a.829.829,0,0,1,.834-.834h.175a1.041,1.041,0,0,1,.861.484l4.71,6.1V77.7a.814.814,0,0,1,1.628,0v7.913a.8.8,0,0,1-.807.821h-.067a1.041,1.041,0,0,1-.861-.5l-4.845-6.271V85.64a.814.814,0,0,1-1.628,0Z" transform="translate(-159.874 -34.856)" fill="#2c1b4e"/>
    <path id="Path_857" data-name="Path 857" d="M380.9,85.249l3.5-7.805a1.05,1.05,0,0,1,1-.672h.08a1.032,1.032,0,0,1,.982.672l3.5,7.805a.72.72,0,0,1,.094.35.775.775,0,0,1-.78.794.853.853,0,0,1-.807-.578l-.767-1.763h-4.575l-.794,1.817a.8.8,0,0,1-.768.525.758.758,0,0,1-.767-.767.846.846,0,0,1,.108-.377m6.163-2.665-1.655-3.808-1.655,3.808Z" transform="translate(-172.615 -34.8)" fill="#2c1b4e"/>
    <path id="Path_858" data-name="Path 858" d="M410.848,77.752a.83.83,0,0,1,.834-.834h.175a.872.872,0,0,1,.767.444l2.853,4.468,2.866-4.481a.834.834,0,0,1,.754-.431h.175a.83.83,0,0,1,.834.834v7.886a.819.819,0,0,1-.834.821.833.833,0,0,1-.821-.821V79.986l-2.3,3.458a.773.773,0,0,1-1.386,0l-2.288-3.432v5.639a.8.8,0,0,1-.821.807.793.793,0,0,1-.807-.807Z" transform="translate(-186.238 -34.867)" fill="#2c1b4e"/>
    <path id="Path_859" data-name="Path 859" d="M442.058,85.6V77.851a.821.821,0,0,1,.834-.834h5.477a.746.746,0,0,1,.74.74.737.737,0,0,1-.74.74h-4.656v2.449h4.051a.75.75,0,0,1,.74.754.735.735,0,0,1-.74.727h-4.051v2.53h4.723a.747.747,0,0,1,.74.74.738.738,0,0,1-.74.74h-5.544a.822.822,0,0,1-.834-.834" transform="translate(-200.386 -34.912)" fill="#2c1b4e"/>
    <path id="Path_860" data-name="Path 860" d="M467.683,82.932a.772.772,0,0,1,.458-1.4.767.767,0,0,1,.484.148,4.083,4.083,0,0,0,2.637.969c1.023,0,1.669-.484,1.669-1.184v-.027c0-.673-.377-1.036-2.127-1.44-2-.484-3.135-1.076-3.135-2.812v-.027c0-1.614,1.346-2.731,3.216-2.731a5.183,5.183,0,0,1,2.988.875.747.747,0,0,1,.363.659.77.77,0,0,1-.78.767.8.8,0,0,1-.431-.121,3.919,3.919,0,0,0-2.167-.713c-.969,0-1.534.5-1.534,1.117v.027c0,.727.43,1.05,2.247,1.48,1.991.485,3.014,1.2,3.014,2.759V81.3c0,1.763-1.386,2.812-3.364,2.812a5.862,5.862,0,0,1-3.539-1.184M471.8,71.965a1.372,1.372,0,0,1,1-.364c.215,0,.364.095.364.27a.611.611,0,0,1-.161.323l-.888,1.117a.9.9,0,0,1-.781.39h-.484a.914.914,0,0,1-.78-.39l-.888-1.117a.607.607,0,0,1-.161-.323c0-.175.175-.27.39-.27a1.353,1.353,0,0,1,1,.364l.7.606Z" transform="translate(-211.856 -32.457)" fill="#2c1b4e"/>
    <path id="Path_861" data-name="Path 861" d="M495.323,78.551h-2.288a.767.767,0,0,1,0-1.534h6.257a.767.767,0,0,1,0,1.534h-2.3v7.132a.834.834,0,0,1-1.669,0Z" transform="translate(-223.147 -34.912)" fill="#2c1b4e"/>
    <path id="Path_862" data-name="Path 862" d="M516.374,85.249l3.5-7.805a1.05,1.05,0,0,1,1-.672h.08a1.032,1.032,0,0,1,.982.672l3.5,7.805a.721.721,0,0,1,.095.35.776.776,0,0,1-.781.794.853.853,0,0,1-.807-.578l-.767-1.763h-4.575l-.794,1.817a.8.8,0,0,1-.767.525.758.758,0,0,1-.767-.767.846.846,0,0,1,.107-.377m6.164-2.665-1.656-3.808-1.655,3.808Z" transform="translate(-234.025 -34.8)" fill="#2c1b4e"/>
    <path id="Path_863" data-name="Path 863" d="M545.2,85.479a.867.867,0,0,1-.283-.619.787.787,0,0,1,.794-.794.748.748,0,0,1,.512.189,2.011,2.011,0,0,0,1.534.727c.915,0,1.52-.592,1.52-1.857v-5.41a.834.834,0,0,1,1.669,0v5.464a3.42,3.42,0,0,1-.888,2.5,3.146,3.146,0,0,1-2.287.834,3.511,3.511,0,0,1-2.571-1.036" transform="translate(-247.012 -34.856)" fill="#2c1b4e"/>
    <path id="Path_864" data-name="Path 864" d="M568.505,85.249l3.5-7.805a1.05,1.05,0,0,1,1-.672h.08a1.031,1.031,0,0,1,.982.672l3.5,7.805a.72.72,0,0,1,.095.35.776.776,0,0,1-.781.794.853.853,0,0,1-.808-.578l-.767-1.763h-4.575l-.794,1.817a.8.8,0,0,1-.767.525.758.758,0,0,1-.767-.767.846.846,0,0,1,.107-.377m6.164-2.665-1.655-3.808-1.655,3.808Z" transform="translate(-257.656 -34.8)" fill="#2c1b4e"/>
  </g>
</svg>
